<svg xmlns="http://www.w3.org/2000/svg" viewBox="0 0 24 24" fill="currentColor" aria-hidden="true"><g transform="scale(0.05000) translate(0.000000,480.000000) scale(0.500000,-0.500000)"><path d="M499 911 c-3 -2 -11 -4 -17 -4 -6 -1 -12 -2 -14 -3 -1 -2 -9 -3 -17 -3 -13 0 -15 -1 -20 -5 -3 -3 -11 -8 -17 -11 -6 -2 -12 -6 -14 -8 -1 -2 -4 -3 -6 -3 -15 0 -53 -29 -55 -42 -1 -5 -5 -11 -16 -22 -24 -24 -30 -38 -21 -50 2 -1 3 -5 3 -9 1 -19 38 -39 59 -31 5 1 5 1 7 -4 5 -12 5 -16 0 -17 -20 -5 -28 -41 -13 -58 3 -4 6 -8 6 -10 0 -9 14 -16 33 -17 21 0 28 -4 30 -17 0 -4 4 -10 7 -14 3 -4 6 -8 6 -9 0 -1 3 -8 6 -15 4 -8 8 -18 9 -22 3 -12 10 -16 27 -15 16 0 20 -3 21 -14 0 -4 2 -8 5 -11 2 -2 4 -7 5 -11 0 -4 3 -9 6 -12 2 -2 5 -7 6 -11 1 -3 3 -8 6 -11 2 -3 5 -8 6 -12 0 -4 3 -9 6 -12 2 -3 6 -11 8 -19 2 -8 5 -16 7 -19 5 -6 11 -19 13 -26 1 -3 3 -7 6 -10 2 -3 5 -8 6 -12 0 -4 3 -9 6 -12 2 -2 5 -8 6 -12 0 -4 3 -9 6 -12 3 -3 5 -6 5 -8 0 -6 8 -29 12 -33 2 -2 4 -7 5 -10 1 -3 3 -8 6 -11 2 -3 5 -8 6 -12 0 -4 3 -9 6 -12 3 -3 5 -7 5 -9 0 -2 3 -9 6 -15 3 -6 6 -15 7 -18 0 -4 3 -9 5 -11 2 -2 4 -6 5 -10 1 -3 3 -8 6 -11 2 -2 5 -8 6 -12 0 -4 3 -9 6 -12 2 -2 5 -8 6 -12 0 -4 3 -9 6 -12 2 -2 5 -8 6 -12 1 -9 15 -23 30 -30 5 -3 11 -6 14 -7 5 -4 25 -4 31 0 3 1 8 3 11 4 7 1 19 12 19 16 0 2 2 6 6 9 3 4 7 11 9 15 2 4 5 9 6 11 5 6 5 12 2 18 -1 4 -3 9 -4 12 -1 3 -3 7 -6 10 -2 3 -5 8 -6 12 0 4 -3 9 -5 11 -2 2 -5 11 -8 19 -2 8 -7 17 -9 20 -2 3 -5 8 -6 12 0 4 -4 9 -7 13 -3 3 -5 8 -5 11 0 4 -3 9 -6 12 -3 3 -5 7 -5 9 0 4 -9 24 -13 27 -1 1 -3 5 -4 9 -1 3 -3 8 -6 11 -2 2 -5 8 -6 12 0 4 -3 9 -6 12 -2 2 -5 8 -6 12 0 4 -3 9 -6 12 -2 2 -5 7 -6 11 0 4 -2 9 -3 10 -2 2 -3 6 -3 9 0 4 -3 9 -6 12 -2 3 -5 8 -6 11 -1 4 -3 8 -5 10 -2 2 -4 5 -4 8 0 5 -15 36 -20 40 -2 2 -4 5 -4 7 0 6 -9 25 -14 29 -2 2 -4 6 -5 9 0 4 -2 8 -3 10 -2 1 -3 5 -3 8 0 4 -3 9 -8 14 -4 4 -7 10 -8 14 -1 4 -2 9 -4 10 -3 2 -2 3 3 9 14 16 17 34 7 45 -2 3 -5 8 -6 12 -1 4 -3 9 -5 11 -3 2 -7 9 -10 16 -4 7 -8 15 -10 18 -5 8 -1 17 11 29 4 4 7 8 7 9 0 2 4 7 9 13 4 5 9 11 10 13 0 1 2 3 4 3 19 0 11 34 -9 37 -7 1 -7 2 -7 10 0 17 -21 27 -39 18 -4 -2 -8 -3 -10 -3 -2 0 -6 -1 -9 -3 -3 -2 -6 -3 -7 -3 -2 0 -6 -1 -9 -3 -7 -4 -7 -4 -12 2 -6 5 -6 5 6 10 7 3 15 8 19 11 3 3 7 6 9 6 19 0 3 42 -18 47 -3 1 -5 3 -6 9 -2 17 -31 33 -46 25z m21 -49 c2 -14 -23 -24 -32 -13 -9 10 -8 13 6 13 6 0 13 1 15 2 6 2 10 2 11 -2z m-82 -19 c0 -1 2 -5 5 -8 10 -13 10 -24 0 -26 -3 0 -9 -4 -12 -7 -4 -4 -7 -6 -11 -6 -4 1 -8 -1 -12 -5 -6 -6 -6 -6 -8 -1 -1 3 -3 6 -4 7 -1 1 -2 4 -2 7 1 4 -1 8 -4 11 -5 5 1 9 18 14 3 1 7 3 10 6 5 4 15 10 19 11 0 0 1 -1 1 -3z m141 -85 c-7 -14 -14 -20 -16 -13 0 3 -1 8 -2 10 -1 2 0 3 3 3 3 0 7 1 10 3 7 4 8 4 5 -3z m-89 -35 c2 -2 4 -6 4 -7 0 -3 20 -45 24 -49 1 -2 2 -4 1 -6 0 -1 0 -5 2 -8 2 -4 2 -5 -4 -6 -3 -1 -8 -3 -11 -6 -8 -9 -16 -6 -19 7 0 4 -2 8 -3 10 -2 1 -3 5 -3 8 0 4 -3 9 -6 12 -2 3 -5 8 -6 11 -1 3 -3 8 -5 10 -2 2 -4 7 -5 11 0 4 -2 8 -4 10 -3 3 -2 4 9 9 6 2 13 7 15 9 4 4 4 4 6 -3 0 -4 3 -10 5 -12z m290 -605 c-1 -3 -1 -8 -1 -10 3 -8 -4 -12 -12 -8 -5 2 -10 3 -13 3 -3 -1 -6 -1 -6 -1 0 3 19 20 23 21 3 1 6 2 6 3 3 5 6 -2 3 -8z M172 751 c-2 -1 -7 -5 -12 -10 -6 -5 -11 -9 -12 -9 -16 0 -27 -30 -16 -40 3 -4 6 -7 6 -9 0 -21 46 -29 47 -7 0 18 31 -25 31 -44 0 -11 6 -29 11 -35 1 -1 2 -4 2 -7 0 -4 3 -9 6 -12 2 -3 5 -8 6 -11 1 -3 5 -10 10 -15 5 -6 9 -11 9 -12 0 -2 6 -9 14 -17 8 -8 14 -16 14 -17 0 -5 15 -19 21 -19 14 0 21 21 11 32 -3 3 -6 9 -7 13 0 4 -3 9 -6 12 -2 2 -5 8 -6 12 0 4 -3 9 -5 11 -2 2 -4 6 -5 10 0 3 -4 9 -7 12 -4 4 -6 7 -6 11 1 4 -1 8 -5 12 -3 3 -5 7 -5 12 0 4 -1 10 -3 13 -2 3 -3 8 -3 12 0 3 -1 8 -3 11 -1 3 -3 9 -4 12 -1 4 -4 10 -7 13 -3 3 -6 6 -6 8 0 3 -24 26 -28 28 -2 0 -4 4 -5 7 -3 15 -24 28 -37 23z M390 419 c-16 -7 -14 -22 5 -41 7 -7 14 -16 15 -19 10 -21 37 -11 37 14 0 23 -39 55 -57 46z"/></g></svg>
