<svg xmlns="http://www.w3.org/2000/svg" viewBox="0 0 24 24" fill="currentColor" aria-hidden="true"><g transform="scale(0.05000) translate(0.000000,480.000000) scale(0.500000,-0.500000)"><path d="M695 911 c-3 -2 -11 -3 -17 -3 -6 0 -14 -1 -17 -3 -4 -2 -12 -3 -26 -3 -14 0 -22 -1 -26 -3 -4 -2 -12 -3 -30 -3 -17 0 -26 -1 -30 -3 -4 -2 -12 -3 -32 -3 -19 0 -27 -1 -32 -3 -4 -2 -13 -3 -35 -3 -22 0 -30 -1 -35 -3 -4 -2 -13 -3 -39 -3 -25 0 -34 -1 -39 -3 -3 -2 -10 -3 -16 -3 -36 0 -57 -25 -57 -67 0 -33 3 -46 11 -53 6 -5 34 -18 39 -18 3 0 8 -1 11 -3 3 -2 11 -3 17 -3 11 0 6 -11 -7 -15 -12 -4 -25 -26 -25 -42 0 -5 -1 -11 -3 -14 -2 -3 -3 -10 -3 -15 0 -5 -1 -12 -3 -15 -2 -3 -3 -8 -3 -9 0 -2 -4 -6 -9 -8 -6 -3 -13 -7 -17 -10 -3 -4 -7 -6 -9 -6 -1 0 -4 -2 -7 -5 -3 -3 -6 -5 -8 -5 -3 0 -60 -56 -60 -59 0 -2 -3 -6 -6 -10 -3 -3 -6 -7 -6 -8 0 -2 -2 -5 -4 -8 -5 -6 -32 -59 -32 -62 0 -2 -1 -5 -3 -8 -2 -3 -3 -7 -3 -9 0 -2 -1 -6 -3 -9 -2 -3 -3 -9 -3 -12 0 -4 -1 -9 -3 -12 -2 -4 -3 -12 -3 -26 0 -14 -1 -22 -3 -26 -4 -8 -4 -26 0 -34 2 -3 3 -11 3 -22 0 -10 1 -18 3 -22 2 -3 3 -10 3 -15 0 -5 1 -12 3 -15 2 -3 3 -7 3 -9 0 -5 21 -45 27 -52 3 -3 5 -7 5 -9 0 -1 2 -4 4 -6 2 -2 5 -7 7 -10 3 -7 37 -41 41 -41 2 0 6 -3 10 -7 7 -7 61 -35 68 -35 2 0 4 -1 5 -2 1 -1 4 -2 7 -3 4 -1 9 -3 12 -4 8 -4 113 -4 121 0 3 2 8 3 11 3 3 0 8 1 11 3 3 2 7 3 8 3 5 0 60 28 64 32 2 2 5 4 7 4 3 0 70 66 70 69 0 2 3 6 6 10 3 3 6 8 6 9 0 1 3 5 6 9 3 3 7 9 7 13 1 4 6 14 10 24 5 9 9 18 9 20 0 2 1 6 3 9 2 3 3 7 3 9 0 2 1 6 3 9 2 3 3 10 3 15 0 5 1 12 3 15 2 5 3 15 3 49 0 34 -1 44 -3 49 -2 3 -3 8 -3 12 0 3 -1 9 -3 12 -2 3 -3 7 -3 9 0 2 -1 6 -3 9 -2 3 -3 7 -3 9 0 2 -3 8 -6 15 -4 7 -7 14 -8 16 -2 5 52 118 59 123 3 3 13 22 13 27 0 1 3 8 6 14 6 12 6 12 6 60 0 47 0 47 11 47 6 0 14 1 18 3 4 2 12 3 18 3 6 0 14 1 18 3 3 1 10 3 15 4 9 1 26 14 30 24 1 2 3 6 5 9 20 35 -12 106 -48 106 -4 0 -9 1 -12 3 -5 2 -14 3 -43 3 -29 0 -38 -1 -43 -3z m-12 -55 c0 -28 91 -32 96 -5 2 7 2 8 9 6 4 -1 4 -2 4 -20 0 -22 -1 -23 -18 -23 -8 0 -15 -1 -19 -3 -3 -2 -11 -3 -20 -3 -8 0 -16 -1 -20 -3 -4 -2 -12 -3 -27 -3 -15 0 -23 -1 -27 -3 -4 -2 -12 -3 -26 -3 -14 0 -22 -1 -26 -3 -4 -2 -12 -3 -30 -3 -17 0 -26 -1 -30 -3 -4 -2 -12 -3 -25 -3 -14 0 -23 -1 -27 -3 -17 -8 -156 -8 -175 0 -20 9 -20 41 0 41 4 0 10 1 13 3 7 4 7 4 6 -4 -3 -22 39 -39 64 -26 3 2 8 3 10 3 7 0 14 3 22 11 5 5 9 7 16 8 10 1 16 5 18 13 2 9 6 10 33 10 16 0 27 0 29 2 3 1 15 2 31 2 20 0 28 1 33 3 4 2 12 3 32 3 25 0 27 0 37 6 15 8 17 8 17 0z m-9 -159 c0 -31 -1 -36 -10 -51 -1 -2 -14 -27 -29 -57 -15 -30 -28 -56 -30 -57 -1 -1 -11 -19 -21 -40 -10 -20 -19 -38 -20 -40 -1 -2 -10 -19 -20 -39 -10 -20 -19 -38 -21 -39 -1 -1 -6 -9 -10 -17 -7 -15 -7 -15 -14 -9 -3 3 -8 6 -10 7 -3 1 -5 3 -6 6 -5 22 -30 24 -50 5 -14 -14 -15 -14 -10 -5 2 3 3 10 3 15 0 5 1 12 3 15 2 3 3 10 3 15 0 5 1 12 3 15 2 3 3 10 3 14 0 5 1 11 3 14 2 3 3 10 3 15 0 5 1 12 3 15 2 3 3 10 3 15 0 5 1 12 3 15 2 4 3 11 3 18 0 7 1 15 3 18 2 3 3 11 3 17 0 6 1 14 3 17 2 4 3 11 3 18 0 7 1 15 3 19 14 27 -12 74 -40 74 -1 0 -5 1 -8 3 -3 2 -11 3 -17 3 -11 0 -11 0 2 13 14 14 14 14 19 9 4 -3 7 -6 9 -7 2 -1 5 -2 8 -4 3 -2 11 -3 20 -3 10 0 18 -1 21 -3 4 -2 12 -3 21 -3 9 0 17 1 21 3 4 2 12 3 33 3 20 0 28 1 33 3 3 2 10 3 15 3 5 0 12 1 15 3 3 2 8 3 11 3 3 0 8 1 11 3 3 2 7 3 9 3 2 0 5 1 8 3 12 6 12 6 12 -28z m-260 -107 c2 -3 -13 -10 -22 -10 -3 0 -8 -1 -11 -3 -3 -2 -7 -3 -9 -3 -4 0 -20 -8 -28 -14 -3 -4 -7 -6 -8 -6 -1 0 -6 -3 -9 -6 -4 -3 -8 -6 -10 -6 -3 0 -51 -48 -51 -52 0 -1 -4 -6 -9 -12 -4 -5 -13 -19 -19 -31 -6 -12 -13 -26 -16 -32 -3 -5 -6 -13 -6 -16 0 -4 -1 -9 -3 -12 -2 -3 -3 -9 -3 -12 0 -4 -1 -9 -3 -12 -4 -9 -4 -103 0 -112 2 -3 3 -7 3 -9 0 -2 1 -6 3 -9 2 -3 3 -7 3 -9 0 -6 28 -58 36 -67 4 -5 8 -10 8 -11 0 -4 18 -22 21 -22 2 0 6 -3 9 -6 4 -3 9 -6 11 -7 4 -1 11 -7 8 -7 0 0 -8 4 -16 8 -9 4 -20 9 -24 11 -9 4 -63 56 -63 61 0 2 -2 5 -5 8 -2 2 -6 9 -8 14 -2 5 -4 10 -5 11 -1 1 -2 4 -2 6 0 2 -1 7 -3 10 -2 3 -3 7 -3 9 0 2 -1 6 -3 9 -2 3 -3 10 -3 15 0 5 -1 12 -3 15 -4 8 -4 62 0 70 2 4 3 11 3 18 0 7 1 15 3 18 2 3 3 8 3 11 0 16 31 80 46 95 5 5 10 11 10 13 0 3 30 34 35 35 2 1 7 4 11 7 3 3 7 6 9 6 1 0 4 1 5 3 3 4 42 23 46 23 2 0 6 1 9 3 3 2 11 3 17 3 6 0 13 1 16 3 6 3 26 4 30 1z m-13 -87 c-2 -4 -3 -10 -3 -15 0 -4 -1 -10 -3 -13 -2 -3 -3 -10 -3 -15 0 -5 -1 -12 -3 -15 -2 -4 -3 -11 -3 -19 0 -10 -1 -12 -3 -13 -5 -2 -23 -19 -23 -22 0 -2 -3 -6 -6 -10 -3 -3 -7 -10 -7 -13 -1 -4 -3 -9 -4 -12 -4 -7 -4 -51 0 -59 2 -3 3 -7 3 -8 0 -45 85 -83 133 -59 29 15 71 63 71 83 0 1 3 8 6 14 3 7 6 13 6 15 0 4 25 55 28 57 1 1 2 -3 2 -8 0 -6 1 -13 3 -16 2 -4 3 -12 3 -27 0 -15 -1 -23 -3 -27 -2 -3 -3 -9 -3 -12 0 -4 -1 -9 -3 -12 -2 -3 -3 -8 -3 -11 0 -13 -26 -69 -37 -80 -4 -4 -7 -8 -7 -9 0 -4 -12 -17 -17 -18 -2 -1 -8 -5 -13 -10 -6 -5 -11 -9 -13 -9 -1 0 -4 -2 -6 -4 -4 -5 -18 -12 -23 -12 -2 0 -8 -3 -15 -6 -8 -4 -15 -6 -21 -6 -5 0 -12 -1 -15 -3 -7 -4 -25 -4 -32 0 -3 2 -9 3 -12 3 -4 0 -9 1 -12 3 -3 2 -7 3 -9 3 -12 0 -65 42 -69 55 -1 2 -3 6 -6 9 -5 6 -11 17 -11 22 0 2 -1 6 -3 9 -2 3 -3 7 -3 9 0 2 -1 6 -3 9 -2 3 -3 10 -3 15 0 5 -1 12 -3 15 -2 4 -3 12 -3 29 0 17 1 25 3 29 2 3 3 10 3 15 0 5 1 12 3 15 2 3 3 8 3 11 0 3 3 11 6 17 3 7 6 13 6 15 0 5 13 31 17 34 2 1 3 4 3 6 0 3 47 52 53 53 2 1 6 3 9 6 6 5 29 17 34 17 2 0 5 1 8 3 6 3 9 -17 3 -28z"/></g></svg>
