<svg xmlns="http://www.w3.org/2000/svg" viewBox="0 0 24 24" fill="currentColor" aria-hidden="true"><g transform="scale(0.05000) translate(0.000000,480.000000) scale(0.500000,-0.500000)"><path d="M460 709 c-8 -4 -11 -11 -7 -19 5 -13 9 -15 32 -16 17 0 21 -1 25 -5 4 -4 6 -4 46 -5 39 0 41 0 46 -5 6 -6 24 -6 30 0 5 5 7 5 50 5 44 1 46 1 50 6 8 6 11 5 13 -4 0 -5 2 -11 5 -14 2 -4 4 -9 4 -19 1 -11 2 -16 5 -20 2 -3 5 -9 7 -13 1 -4 3 -8 5 -10 1 -2 4 -6 5 -10 1 -4 3 -9 5 -10 1 -1 3 -5 4 -9 1 -3 6 -10 11 -16 5 -5 10 -13 11 -16 1 -4 6 -11 15 -20 9 -9 14 -16 15 -20 4 -22 61 -64 72 -53 6 6 6 59 1 65 -4 4 -4 4 0 8 6 6 5 48 -2 57 -4 3 -6 7 -6 9 0 1 -4 7 -10 13 -17 19 -33 13 -36 -12 -1 -12 -1 -12 -3 -6 0 4 -3 9 -5 11 -2 2 -5 7 -6 11 -1 4 -3 9 -5 10 -1 1 -3 5 -4 8 -1 3 -3 9 -6 12 -2 3 -5 8 -6 11 -1 3 -3 8 -5 10 -2 3 -4 8 -4 16 -1 7 -3 12 -5 16 -3 3 -5 8 -5 16 -2 22 15 20 -174 20 -129 1 -164 0 -168 -2z M303 659 c-4 -1 -7 -4 -8 -5 -1 -1 -8 -2 -18 -2 -18 0 -28 -3 -33 -9 -1 -2 -4 -3 -6 -2 -6 2 -15 -1 -22 -6 -4 -4 -8 -5 -10 -4 -5 1 -16 -2 -21 -7 -2 -2 -7 -4 -10 -5 -3 -1 -8 -3 -10 -5 -2 -2 -7 -4 -10 -5 -3 -1 -8 -3 -10 -5 -2 -2 -7 -4 -10 -5 -6 -1 -77 -70 -77 -74 0 -2 -2 -6 -5 -9 -9 -10 -9 -92 0 -102 3 -3 5 -7 5 -9 0 -1 2 -4 4 -6 2 -2 4 -6 5 -9 2 -10 47 -56 57 -59 5 -1 12 -6 17 -11 6 -6 13 -10 16 -11 3 -1 8 -3 10 -5 2 -2 7 -4 10 -5 3 -1 8 -3 10 -6 3 -2 9 -4 15 -5 7 0 13 -2 15 -4 2 -2 7 -4 10 -5 3 -1 8 -3 11 -6 3 -3 7 -4 20 -5 12 0 16 -1 20 -5 4 -4 7 -4 29 -5 21 0 25 -1 29 -5 7 -6 191 -7 198 0 4 4 8 5 23 5 16 1 19 2 23 5 4 4 8 5 20 5 12 1 17 2 21 5 3 3 10 5 16 5 5 1 12 3 15 5 3 3 8 5 12 7 4 1 9 3 10 5 1 1 5 3 8 4 4 1 11 5 16 10 5 5 12 9 16 11 10 3 65 59 67 67 1 3 3 8 6 10 2 3 4 9 5 15 0 7 2 13 5 16 4 4 4 7 4 26 0 19 0 22 -4 26 -3 3 -5 9 -5 16 -1 6 -3 12 -5 15 -3 2 -5 7 -6 10 -2 9 -60 67 -68 68 -4 1 -8 3 -10 5 -2 2 -7 4 -10 5 -4 1 -8 3 -10 5 -2 2 -7 4 -10 5 -4 1 -8 3 -10 5 -2 2 -6 4 -10 5 -3 1 -8 3 -10 5 -6 5 -13 8 -20 7 -3 -1 -7 0 -11 4 -7 5 -16 8 -22 6 -2 -1 -5 0 -6 2 -5 6 -15 9 -32 9 -14 0 -17 1 -22 5 -8 5 -215 8 -227 2z m244 -67 c17 0 21 -1 24 -4 3 -3 9 -5 15 -6 7 0 13 -2 15 -5 3 -2 9 -4 15 -5 7 0 13 -2 15 -4 2 -2 7 -4 10 -5 3 -1 8 -3 10 -5 2 -2 7 -4 10 -5 9 -2 62 -55 64 -64 1 -4 3 -8 5 -10 6 -5 6 -45 0 -50 -2 -2 -4 -6 -5 -10 -2 -8 -43 -50 -52 -52 -3 -1 -8 -3 -10 -5 -2 -2 -8 -4 -12 -6 -5 -1 -10 -3 -11 -5 -1 -1 -6 -4 -10 -5 -4 -1 -9 -4 -11 -6 -3 -3 -7 -4 -10 -4 -8 1 -15 -2 -20 -6 -3 -3 -8 -4 -19 -4 -13 -1 -17 -2 -20 -5 -4 -4 -8 -5 -25 -5 -18 -1 -21 -2 -25 -5 -5 -5 -6 -5 -71 -5 -65 0 -66 0 -71 5 -4 4 -7 4 -30 5 -22 0 -26 1 -29 4 -3 3 -9 5 -15 6 -7 0 -13 2 -15 4 -5 5 -12 7 -20 6 -4 0 -8 1 -10 4 -4 5 -16 9 -21 7 -3 -1 -6 0 -10 4 -3 2 -9 5 -12 6 -3 1 -9 5 -13 9 -5 5 -11 9 -15 10 -15 5 -53 46 -54 59 -1 7 -3 13 -6 16 -5 6 -5 13 0 18 3 3 5 8 6 15 0 10 2 12 9 20 5 5 9 11 10 13 1 3 3 5 6 6 2 1 10 8 18 15 8 8 17 14 20 15 3 1 8 3 10 5 2 2 7 4 10 5 3 1 8 3 10 5 2 2 8 4 15 4 6 1 12 3 15 5 2 3 8 5 15 5 6 1 12 3 15 6 3 3 7 4 24 4 16 1 21 2 26 5 11 7 196 8 204 1 5 -5 7 -5 26 -6z M324 599 c-2 -1 -5 -3 -7 -5 -3 -3 -8 -4 -24 -4 -18 -1 -21 -2 -25 -5 -3 -3 -9 -5 -16 -5 -6 -1 -12 -3 -15 -5 -2 -3 -7 -5 -10 -6 -4 -1 -8 -3 -10 -5 -2 -2 -6 -4 -10 -5 -4 -1 -9 -3 -11 -5 -3 -2 -8 -4 -12 -6 -10 -3 -44 -37 -45 -46 -1 -4 -3 -9 -5 -11 -11 -12 -11 -42 0 -54 2 -2 4 -7 5 -10 2 -9 38 -45 46 -46 4 -1 8 -3 10 -5 2 -2 7 -4 10 -5 4 -1 8 -3 10 -5 2 -2 6 -4 10 -5 3 -1 8 -3 10 -6 3 -2 9 -4 15 -5 7 0 13 -2 15 -5 4 -2 9 -4 16 -5 9 0 14 -2 18 -5 6 -6 4 -5 38 -5 23 0 27 0 29 -3 11 -13 105 -13 116 0 2 3 6 3 31 3 29 0 33 0 40 6 3 3 8 4 19 4 13 1 17 2 20 5 3 3 8 5 11 6 3 1 8 3 10 5 2 2 8 4 15 4 9 1 11 3 20 11 5 5 12 9 15 10 32 7 57 63 48 109 -2 10 -39 47 -48 49 -4 1 -10 5 -15 10 -5 6 -11 9 -15 10 -4 1 -8 3 -10 5 -2 2 -6 4 -10 5 -3 1 -8 3 -11 6 -3 3 -7 4 -21 5 -13 0 -17 1 -21 5 -3 3 -7 4 -20 5 -12 0 -16 1 -20 5 -4 4 -186 8 -196 4z m166 -61 c4 -4 7 -5 25 -6 17 0 21 -1 24 -4 3 -3 9 -5 15 -6 7 0 13 -2 15 -5 4 -2 9 -4 16 -5 8 0 13 -2 16 -4 2 -2 7 -4 10 -5 12 -3 44 -37 39 -42 -2 -2 -4 -7 -5 -10 -2 -8 -16 -22 -24 -24 -4 -1 -8 -3 -10 -5 -2 -2 -6 -4 -10 -5 -3 -1 -8 -3 -10 -5 -2 -2 -6 -4 -10 -5 -3 0 -8 -3 -10 -5 -3 -3 -8 -4 -19 -4 -13 -1 -17 -2 -20 -5 -5 -4 -8 -5 -30 -5 -23 -1 -26 -1 -32 -5 -6 -5 -8 -5 -41 -5 -34 0 -36 0 -41 5 -4 4 -7 4 -30 5 -22 0 -25 1 -30 5 -3 3 -7 4 -20 5 -11 0 -16 2 -20 4 -3 3 -10 5 -15 6 -6 0 -12 2 -15 4 -2 2 -7 4 -11 5 -4 1 -8 3 -10 5 -2 2 -6 4 -10 5 -34 7 -41 59 -8 66 3 1 10 5 15 10 8 7 10 9 20 9 6 1 12 3 15 5 2 3 8 5 15 5 6 1 12 3 15 6 3 3 7 4 19 4 13 1 17 2 20 6 7 7 144 7 152 0z"/></g></svg>
