<svg xmlns="http://www.w3.org/2000/svg" width="237.95" height="140.1" viewBox="0 0 237.95 140.1">
  <path d="M290.87,312.85a54.34,54.34,0,1,1-47.72-84.68h.1v-21a74.8,74.8,0,0,0-21.79,4L217.92,224a64.82,64.82,0,1,0,79.57,97.65A75.35,75.35,0,0,1,290.87,312.85Zm-59-97.79a4.11,4.11,0,1,1-4.11,4.11A4.11,4.11,0,0,1,231.91,215.06Zm16.53,13.11h.09A54.21,54.21,0,0,1,284.2,244a74.34,74.34,0,0,1,4.82-9.86A65,65,0,0,0,273.77,224l-3.54-12.76a75.19,75.19,0,0,0-21.79-4v21h0Zm11.34-13.11a4.11,4.11,0,1,1-4.12,4.11A4.11,4.11,0,0,1,259.78,215.06Zm43.6,37.41A54.61,54.61,0,0,1,317,232.34l9.5,5.51a43.84,43.84,0,0,1,15.81-8.15L334,210.35v0l-.06,0a65.13,65.13,0,0,0-42,43.2Zm24.35-32.23a4.06,4.06,0,1,1-4.06,4.06A4.06,4.06,0,0,1,327.73,220.24Zm46.33-9.94-8.3,19.35a44,44,0,0,1,15.89,8.15l9.5-5.51a54.32,54.32,0,1,1-83.06,68.57L296.62,302a64.84,64.84,0,1,0,77.44-91.67Zm6.4,18.12a4.07,4.07,0,1,1,4.06-4.07A4.07,4.07,0,0,1,380.46,228.42Z" transform="translate(-180.99 -207.2)" fill="#768692"/>
  <path d="M230,268.94l.29.16-.76,6.61-5.16.5,0-.53c-.1-1.91-.49-3.06-1.28-3.75s-2-.93-3.82-.76c-3.28.32-5.36,2.2-5.7,5.16-.3,2.64.76,3.69,4.35,4.34l3.33.57c6,1,8.77,4.17,8.17,9.45-.78,6.87-6.06,11.28-14.49,12.09a25.18,25.18,0,0,1-2.64.14,16.15,16.15,0,0,1-8-1.84l-.31-.16.79-6.91,5.32-.51,0,.54c0,2.18.48,3.56,1.35,4.34s2.19,1,4.2.82c4.1-.39,6.38-2.39,6.78-5.92.36-3.08-.66-4.14-4.73-4.92l-3.38-.62c-5.69-1-8-3.76-7.39-8.9.72-6.32,5.77-10.69,13.18-11.4C224.19,267.05,227.51,267.55,230,268.94Zm5.29.58.61,0c1.38-.1,2.15,0,2.49.35s.39,1,.25,2.28l-2.51,22.08c-.29,2.52-.9,3.09-3.65,3.4l-.39.05-.34,3,26.43-2.54,1.06-9.38-4.07.39-.07.37c-.9,4.47-2.1,5.33-5.22,5.62l-6.56.64L244.64,284l3.43-.33c1.49-.15,2.34,0,2.75.35s.49,1,.45,2.12l0,.57,3.66-.35,1.21-10.62-3.68.35-.07.37c-.46,2.48-1.23,3.11-4.13,3.39l-3.17.31,1.23-10.74,6.32-.61c2.83-.28,3.24.43,3.9,3.85l.09.44,3.87-.37.37-8.6-25.24,2.43Zm31.68-3,.61-.05c1.38-.11,2.15,0,2.49.35s.4,1,.25,2.28l-2.51,22.08c-.29,2.52-.9,3.09-3.64,3.4l-.4.05-.34,3L289.84,295l1.07-9.38-4.08.39-.07.37c-.9,4.47-2.1,5.32-5.22,5.62l-6.56.64,1.34-11.75,3.43-.33c1.49-.14,2.34,0,2.75.36s.49,1,.45,2.12l0,.57,3.66-.35,1.21-10.62-3.68.35-.07.37c-.46,2.48-1.23,3.11-4.12,3.39l-3.18.31L278,266.32l6.32-.61c2.84-.28,3.24.43,3.9,3.85l.09.44,3.87-.37.37-8.6-25.23,2.43Zm44,12.16.61,0c1.6-.13,2.47,0,2.82.33s.37.95.22,2.22l-.84,7.34a8.55,8.55,0,0,1-4.4,1.46c-2.06.2-3.56-.2-4.56-1.22-1.71-1.73-2.18-5.37-1.49-11.44,1.11-9.67,4-14.4,9.07-14.89,1.81-.17,3,0,3.76.67s1.15,1.76,1.32,3.77l0,.5,5.21-.5.76-6.64-.27-.17c-1.57-1-4.63-2.06-10.3-1.52-9.56.92-16,8.14-17.3,19.31-.65,5.75.42,10.22,3.1,12.95a11.28,11.28,0,0,0,8.33,3.06,16.48,16.48,0,0,0,1.83-.09c3.46-.33,8.34-1.55,11.64-4l.18-.13,1-9c.28-2.46.85-3.09,3-3.34l.4-.05.34-3-14.17,1.36Zm18.63-18.19.6-.05c1.39-.11,2.16,0,2.5.35s.39,1,.25,2.28l-2.51,22.07c-.29,2.53-.9,3.1-3.65,3.41l-.39,0-.34,3L352.47,289l1.07-9.38-4.07.39-.07.36c-.91,4.48-2.1,5.33-5.22,5.63l-6.56.64L339,274.86l3.44-.33c1.49-.14,2.34,0,2.75.36s.49,1,.45,2.12l0,.57,3.66-.35,1.21-10.62-3.68.35-.07.37c-.46,2.48-1.23,3.11-4.13,3.39l-3.17.31,1.23-10.74,6.32-.61c2.84-.27,3.24.43,3.9,3.85l.09.44,3.87-.37.37-8.6-25.24,2.43Zm59.54,22.08-.34,3-9.6.92-.24-.62a78.14,78.14,0,0,0-4.19-9.75c-1.34-2.51-2.3-3.26-4.42-3.29l-1,8.88c-.13,1.14,0,1.83.29,2.17s1.09.46,2.37.37l.61,0-.34,3-14.72,1.42.34-3,.4,0c2.74-.31,3.35-.88,3.64-3.41L364.43,260c.14-1.25.06-1.95-.26-2.28s-1.11-.46-2.49-.35l-.61.05.35-3L376.07,253c4.81-.47,8.22.28,10.13,2.22,1.45,1.48,2,3.64,1.71,6.41-.55,4.84-4.11,8.34-9.63,9.59a7,7,0,0,1,3.39,2.52,49.4,49.4,0,0,1,3.62,6.72c.73,1.53,1.06,2.22,3.24,2.1Zm-9.78-24.77c-.73-.74-2.07-1-4.22-.79l-3,.3-1.35,11.83,2.67-.25c3.59-.35,6.09-1.62,6.67-6.68C380.35,259.92,380.11,258.52,379.35,257.75ZM401,256.22a5.16,5.16,0,1,0-5.16,5.18A5.16,5.16,0,0,0,401,256.22Zm-1.17,0a4,4,0,1,1-4-4.15A4.08,4.08,0,0,1,399.84,256.22Zm-1.59,2.87c-.21-.36-1.1-1.88-1.39-2.26a1.39,1.39,0,0,0-.24-.25,1.49,1.49,0,0,0,1.3-1.6,1.62,1.62,0,0,0-1.72-1.7H394v5.81h1.15v-2.43a.37.37,0,0,1,.18,0c.21.08.39.37,1,1.42.22.41.32.57.54,1ZM396.68,255a.82.82,0,0,1-.23.58c-.15.14-.37.2-.87.2h-.39v-1.58h.41a2.08,2.08,0,0,1,.66.09A.67.67,0,0,1,396.68,255Z" transform="translate(-180.99 -207.2)" fill="#004979"/>
</svg>
