<?xml version="1.0" encoding="utf-8"?>
<!-- Generator: Adobe Illustrator 25.3.0, SVG Export Plug-In . SVG Version: 6.00 Build 0)  -->
<svg version="1.1" id="Laag_1" xmlns="http://www.w3.org/2000/svg" xmlns:xlink="http://www.w3.org/1999/xlink" x="0px" y="0px"
	 viewBox="0 0 841.9 181.7" style="enable-background:new 0 0 841.9 181.7;" xml:space="preserve">
<style type="text/css">
	.st0{fill:#1878BE;}
</style>
<g>
	<g>
		<path class="st0" d="M69,50.9v33.2h58.2v23.3H69v45.8H39.9V27.6h95v23.3H69z"/>
		<path class="st0" d="M227.1,126.3h-58.4l-11.1,26.9h-29.8l56-125.7h28.7l56.2,125.7h-30.5L227.1,126.3z M217.9,104.2L198,56.1
			L178,104.2H217.9z"/>
		<path class="st0" d="M394.9,99.3c4.1,5.3,6.1,11.9,6.1,19.7c0,11-4.3,19.5-12.8,25.4c-8.6,5.9-21,8.9-37.4,8.9h-65V27.6h61.4
			c15.3,0,27.1,2.9,35.3,8.8c8.2,5.9,12.3,13.8,12.3,23.9c0,6.1-1.5,11.6-4.4,16.3c-2.9,4.8-7,8.6-12.3,11.3
			C385.2,90.2,390.9,94,394.9,99.3z M314.7,49.5v29.6h28.9c7.2,0,12.6-1.3,16.3-3.8c3.7-2.5,5.6-6.2,5.6-11.1c0-4.9-1.9-8.6-5.6-11
			c-3.7-2.5-9.2-3.7-16.3-3.7H314.7z M365.9,127.6c3.9-2.5,5.8-6.4,5.8-11.7c0-10.4-7.7-15.6-23.2-15.6h-33.9v31.1h33.9
			C356.3,131.3,362,130.1,365.9,127.6z"/>
		<path class="st0" d="M448.7,146.9c-10.5-5.6-18.7-13.4-24.6-23.3s-8.9-21-8.9-33.3c0-12.3,3-23.4,8.9-33.3s14.1-17.6,24.6-23.3
			c10.5-5.6,22.2-8.4,35.3-8.4c13,0,24.8,2.8,35.2,8.4c10.4,5.6,18.6,13.4,24.6,23.3c6,9.9,9,21,9,33.3c0,12.3-3,23.4-9,33.3
			c-6,9.9-14.2,17.6-24.6,23.3c-10.4,5.6-22.1,8.4-35.2,8.4C470.9,155.4,459.2,152.6,448.7,146.9z M504.1,125.5
			c6-3.4,10.7-8.2,14.1-14.3c3.4-6.1,5.1-13,5.1-20.8c0-7.8-1.7-14.7-5.1-20.8c-3.4-6.1-8.1-10.9-14.1-14.3
			c-6-3.4-12.7-5.1-20.1-5.1c-7.4,0-14.1,1.7-20.1,5.1c-6,3.4-10.7,8.2-14.1,14.3s-5.1,13-5.1,20.8c0,7.8,1.7,14.7,5.1,20.8
			c3.4,6.1,8.1,10.9,14.1,14.3c6,3.4,12.7,5.1,20.1,5.1C491.4,130.6,498.1,128.9,504.1,125.5z"/>
		<path class="st0" d="M651,153.2l-24.2-35h-1.4H600v35h-29.1V27.6h54.4c11.1,0,20.8,1.9,29,5.6c8.2,3.7,14.5,9,18.9,15.8
			c4.4,6.8,6.6,14.9,6.6,24.2s-2.2,17.4-6.7,24.1c-4.5,6.8-10.9,11.9-19.1,15.5l28.2,40.4H651z M643.6,56.9
			c-4.6-3.8-11.2-5.7-19.9-5.7H600v43.8h23.7c8.7,0,15.4-1.9,19.9-5.7c4.5-3.8,6.8-9.2,6.8-16.2C650.4,66.1,648.1,60.7,643.6,56.9z"
			/>
		<path class="st0" d="M760.4,108.7v44.5h-29.1v-44.9l-48.7-80.8h30.9l33.6,55.8l33.6-55.8h28.5L760.4,108.7z"/>
	</g>
</g>
</svg>
