<?xml version="1.0" encoding="UTF-8"?>
<svg width="831px" height="412px" viewBox="0 0 831 412" version="1.1" xmlns="http://www.w3.org/2000/svg" xmlns:xlink="http://www.w3.org/1999/xlink">
    <title>mainlogo</title>
    <g id="页面-1" stroke="none" stroke-width="1" fill="none" fill-rule="evenodd">
        <g id="mainlogo" transform="translate(0.000000, 0.000000)" fill="#003DA5" fill-rule="nonzero">
            <path d="M169.52279,286.721392 L216.65279,286.721392 L206.48279,332.301392 L192.26279,332.301392 L190.12279,325.021392 C179.92279,332.301392 168.48279,335.091392 149.44279,335.091392 C126.17279,335.091392 95.7727901,329.611392 104.02279,292.651392 C111.84279,257.651392 143.02279,249.551392 168.41279,249.551392 C205.32279,249.551392 220.68279,259.181392 218.67279,279.781392 L181.29279,279.781392 C181.29279,275.631392 179.39279,273.061392 176.65279,271.601392 C173.91279,270.141392 170.14279,269.701392 165.79279,269.701392 C152.28279,269.701392 142.28279,276.081392 138.65279,292.321392 C135.36279,307.091392 141.83279,314.941392 158.29279,314.941392 C169.10279,314.941392 175.40279,310.941392 179.10279,304.861392 L165.47279,304.861392 L169.52279,286.721392 Z" id="路径"></path>
            <polygon id="路径" points="258.98279 161.281392 296.82279 161.281392 320.55279 205.621392 320.90279 205.621392 330.80279 161.281392 362.53279 161.281392 344.69279 241.221392 308.37279 241.221392 283.10279 196.431392 282.87279 196.431392 272.88279 241.221392 241.14279 241.221392"></polygon>
            <path d="M327.75279,255.261392 C323.65279,253.131392 318.06279,252.341392 308.54279,252.341392 L238.77279,252.341392 L220.92279,332.341392 L254.07279,332.341392 L259.56279,307.691392 L283.00279,307.691392 C289.11279,307.691392 290.46279,311.291392 289.46279,317.221392 C287.97279,326.511392 287.20279,329.991392 287.85279,332.341392 L324.05279,332.341392 C322.322485,329.528591 321.616043,326.204778 322.05279,322.931392 L324.54279,305.451392 C325.54279,298.511392 322.41279,294.451392 317.77279,293.141392 L317.82279,292.911392 C328.06279,290.231392 333.15279,282.171392 334.82279,274.671392 C335.11471,273.382912 335.292069,272.071132 335.35279,270.751392 L335.35279,268.831392 C335.07279,262.581392 332.05279,257.491392 327.75279,255.261392 Z M298.41279,279.971392 C297.29279,284.971392 294.03279,287.471392 287.57279,287.471392 L264.06279,287.471392 L267.37279,272.471392 L290.37279,272.471392 C296.00279,272.501392 299.76279,273.971392 298.41279,279.971392 Z" id="形状"></path>
            <path d="M430.63279,158.481392 C427.82279,158.481392 424.63279,158.481392 421.31279,158.661392 L421.00279,158.661392 C400.29279,159.661392 371.56279,165.731392 363.64279,201.231392 C362.740712,205.108656 362.254631,209.071054 362.19279,213.051392 L362.19279,213.721392 C362.45279,242.971392 393.61279,243.971392 411.45279,243.971392 C414.32279,243.971392 417.55279,243.971392 421.00279,243.781392 L421.09279,243.781392 C441.79279,242.781392 470.51279,236.711392 478.44279,201.201392 C479.345096,197.36143 479.831232,193.43546 479.89279,189.491392 L479.89279,188.671392 C479.56279,159.541392 448.46279,158.481392 430.63279,158.481392 Z M443.09279,201.241392 C439.93279,215.391392 431.94279,222.051392 421.00279,223.541392 C419.345393,223.762175 417.674811,223.869092 416.00279,223.86178 L416.00279,223.86178 C402.44279,223.86178 395.29279,217.471392 398.92279,201.241392 C402.08279,187.111392 410.08279,180.441392 421.02279,178.961392 L421.11279,178.961392 C422.770395,178.741649 424.440683,178.631392 426.11279,178.631392 C439.56279,178.631392 446.71279,184.971392 443.09279,201.241392 L443.09279,201.241392 Z" id="形状"></path>
            <path d="M408.06279,249.551392 C405.19279,249.551392 401.96279,249.551392 398.52279,249.741392 L398.52279,249.741392 C377.82279,250.741392 349.08279,256.801392 341.16279,292.321392 C340.256726,296.194561 339.770587,300.154075 339.71279,304.131392 L339.71279,304.801392 C339.97279,334.031392 371.13279,335.091392 388.97279,335.091392 C391.84279,335.091392 395.07279,335.091392 398.52279,334.901392 L398.52279,334.901392 C419.22279,333.901392 447.94279,327.841392 455.86279,292.321392 C456.76351,288.477521 457.252928,284.548766 457.32279,280.601392 L457.32279,279.781392 C457.00279,250.611392 425.89279,249.551392 408.06279,249.551392 Z M420.57279,292.321392 C417.41279,306.451392 409.42279,313.121392 398.48279,314.611392 C396.80846,314.831456 395.121521,314.941393 393.43279,314.941393 C379.91279,314.941393 372.76279,308.551392 376.38279,292.321392 C379.48279,278.171392 387.48279,271.511392 398.48279,270.031392 L398.48279,270.031392 C400.140395,269.811649 401.810683,269.701392 403.48279,269.701392 C417.00279,269.701392 424.19279,276.081392 420.57279,292.321392 Z" id="形状"></path>
            <path d="M813.14279,161.281392 L772.47279,161.281392 L718.90279,241.211392 L754.16279,241.211392 L759.73279,232.031392 L794.28279,232.031392 L795.77279,241.211392 L831.00279,241.211392 L813.14279,161.281392 Z M771.36279,212.551392 L781.36279,195.551392 L787.28279,185.461392 L787.52279,185.461392 L791.36279,212.561392 L771.36279,212.551392 Z" id="形状"></path>
            <path d="M587.41279,164.191392 C583.30279,162.061392 577.72279,161.281392 568.20279,161.281392 L498.37279,161.281392 L480.54279,241.221392 L513.68279,241.221392 L519.18279,216.591392 L542.73279,216.591392 C548.84279,216.591392 550.18279,220.161392 549.18279,226.101392 C547.70279,235.391392 546.93279,238.861392 547.58279,241.221392 L583.78279,241.221392 C582.050162,238.409521 581.343542,235.084874 581.78279,231.811392 L584.26279,214.341392 C585.26279,207.411392 582.13279,203.341392 577.49279,202.031392 L577.49279,201.811392 C587.72279,199.121392 592.82279,191.051392 594.49279,183.561392 C594.779816,182.265278 594.95711,180.947281 595.02279,179.621392 L595.02279,177.741392 C594.75279,171.521392 591.72279,166.431392 587.41279,164.191392 Z M558.00279,188.901392 C556.87279,193.901392 553.63279,196.401392 547.16279,196.401392 L523.68279,196.401392 L527.00279,181.401392 L550.00279,181.401392 C555.59279,181.401392 559.38279,182.901392 558.00279,188.901392 Z" id="形状"></path>
            <path d="M478.56279,252.341392 L511.71279,252.341392 L500.91279,300.711392 C498.61279,311.011392 504.11279,314.271392 514.91279,314.271392 C525.71279,314.271392 532.68279,310.971392 535.00279,300.711392 L545.79279,252.341392 L578.93279,252.341392 L567.84279,301.971392 C562.17279,327.401392 544.34279,335.121392 510.26279,335.121392 C476.18279,335.121392 461.80279,327.371392 467.47279,301.971392 L478.56279,252.341392 Z" id="路径"></path>
            <polygon id="路径" points="611.43279 161.281392 658.11279 161.281392 661.49279 207.741392 661.73279 207.741392 685.84279 161.281392 732.51279 161.281392 714.66279 241.221392 684.58279 241.221392 697.32279 184.121392 697.08279 184.121392 666.71279 241.221392 641.55279 241.221392 636.67279 184.121392 636.43279 184.121392 623.70279 241.221392 593.61279 241.221392"></polygon>
            <path d="M659.68279,252.341392 L591.29279,252.341392 L573.43279,332.341392 L606.59279,332.341392 L612.13279,307.471392 L647.68279,307.521392 C671.15279,307.521392 682.27279,295.651392 685.68279,280.321392 C686.181455,278.115881 686.515706,275.876394 686.68279,273.621392 L686.68279,269.411392 C685.82279,258.341392 677.84279,252.341392 659.68279,252.341392 Z M651.23279,279.661392 C649.93279,285.481392 646.23279,287.951392 637.86279,287.951392 L616.47279,287.951392 L620.23279,271.121392 L641.61279,271.121392 C650.00279,271.151392 652.58279,273.661392 651.23279,279.661392 L651.23279,279.661392 Z" id="形状"></path>
            <path d="M0.492790142,411.751392 L12.9127901,411.751392 C7.01186442,297.741939 52.6335061,187.111202 137.18279,110.401392 C134.39521,107.219181 132.148697,103.601113 130.53279,99.6913922 C42.3478543,178.78079 -5.43408457,293.444216 0.492790142,411.751392 L0.492790142,411.751392 Z" id="路径"></path>
            <path d="M191.49279,54.9713922 C194.730656,57.6820964 197.506794,60.9006605 199.71279,64.5013922 C308.221038,0.933379177 441.143872,-4.86182577 554.77279,49.0213922 L554.77279,35.4013922 C437.781178,-17.9588422 302.074918,-10.6483062 191.49279,54.9713922 L191.49279,54.9713922 Z" id="路径"></path>
            <path d="M205.41279,84.7813922 C205.41279,106.320497 187.951895,123.781392 166.41279,123.781392 C144.873685,123.781392 127.41279,106.320497 127.41279,84.7813922 C127.41279,63.242287 144.873685,45.7813922 166.41279,45.7813922 L166.46279,45.7813922 C187.982367,45.8089814 205.41279,63.2617981 205.41279,84.7813922 L205.41279,84.7813922 Z" id="路径"></path>
        </g>
    </g>
</svg>